<?xml version="1.0" encoding="UTF-8" standalone="no"?>
<svg width="375px" height="667px" viewBox="0 0 375 667" version="1.1" xmlns="http://www.w3.org/2000/svg" xmlns:xlink="http://www.w3.org/1999/xlink" xmlns:sketch="http://www.bohemiancoding.com/sketch/ns">
    <!-- Generator: Sketch 3.5.1 (25234) - http://www.bohemiancoding.com/sketch -->
    <title>iPhone 6</title>
    <desc>Created with Sketch.</desc>
    <defs>
        <filter x="-50%" y="-50%" width="200%" height="200%" filterUnits="objectBoundingBox" id="filter-1">
            <feOffset dx="0" dy="2" in="SourceAlpha" result="shadowOffsetOuter1"></feOffset>
            <feGaussianBlur stdDeviation="1.5" in="shadowOffsetOuter1" result="shadowBlurOuter1"></feGaussianBlur>
            <feColorMatrix values="0 0 0 0 0   0 0 0 0 0   0 0 0 0 0  0 0 0 0.119 0" in="shadowBlurOuter1" type="matrix" result="shadowMatrixOuter1"></feColorMatrix>
            <feMerge>
                <feMergeNode in="shadowMatrixOuter1"></feMergeNode>
                <feMergeNode in="SourceGraphic"></feMergeNode>
            </feMerge>
        </filter>
    </defs>
    <g id="Page-1" stroke="none" stroke-width="1" fill="none" fill-rule="evenodd" sketch:type="MSPage">
        <g id="iPhone-6" sketch:type="MSArtboardGroup">
            <rect id="background" fill="#5D6268" sketch:type="MSShapeGroup" x="0" y="200" width="375" height="467"></rect>
            <g id="Audio-controls" sketch:type="MSLayerGroup" transform="translate(0.000000, 329.000000)">
                <rect id="Back-Copy" fill="#6E7378" sketch:type="MSShapeGroup" x="0" y="0" width="375" height="104"></rect>
                <path d="M267.270651,77.314321 L252.720219,68.1477778 L252.720219,86.4827778 L267.271729,77.315 L267.270651,86.4827778 L281.822161,77.315 L267.270651,68.1477778 L267.270651,77.314321 Z" id="FF" fill="#F2F4F6" sketch:type="MSShapeGroup"></path>
                <path d="M109.909882,77.315679 L124.460314,86.4827778 L124.460314,68.1477778 L109.908804,77.315 L109.909882,68.1477778 L95.3589107,77.315 L109.909882,86.4827778 L109.909882,77.315679 Z" id="RW" fill="#F2F4F6" sketch:type="MSShapeGroup"></path>
                <path d="M178.890248,65.37 L198.830807,77.5933333 L178.890248,89.8166667" id="Play" fill="#F2F4F6" sketch:type="MSShapeGroup"></path>
                <text id="alt-J---An-Awesome-W" sketch:type="MSTextLayer" font-family="SF UI Display" font-size="15" font-weight="260" sketch:alignment="middle" fill="#D1D4D6">
                    <tspan x="107.254395" y="51">alt-J - An Awesome Wave</tspan>
                </text>
                <text id="Dissolve-Me" sketch:type="MSTextLayer" font-family="SF UI Display" font-size="16" font-weight="normal" sketch:alignment="middle" fill="#FFFFFF">
                    <tspan x="147.191406" y="24">Dissolve Me</tspan>
                </text>
            </g>
            <g id="bottom-bar" sketch:type="MSLayerGroup" transform="translate(48.000000, 566.000000)">
                <path d="M288.219983,24 L283.134975,24 C283.134975,24 281.669985,23.0345 280.454159,20.632 C279.822093,19.383 278.044883,19.5005 278.044883,19.5005 L270.930957,19.5005 C270.930957,19.5005 269.463932,19.1665 268.581683,20.618 C267.541799,22.328 266.673788,23.9345 265.846457,24.0005 L260.760433,24.0005 C259.637155,24.0005 258.72643,24.896 258.72643,26.0005 L258.72643,40.5005 C258.72643,41.605 259.637155,42.5005 260.760433,42.5005 L288.219474,42.5005 C289.342753,42.5005 290.253478,41.605 290.253478,40.5005 L290.253478,26.0005 C290.253478,24.896 289.343261,24 288.219983,24 L288.219983,24 Z M274.490462,40.001 C270.558734,40.001 267.371451,36.8665 267.371451,33.0005 C267.371451,29.1345 270.558734,26.0005 274.490462,26.0005 C278.422699,26.0005 281.609473,29.1345 281.609473,33.0005 C281.609473,36.8665 278.42219,40.001 274.490462,40.001 L274.490462,40.001 Z M283.388717,27.0005 C282.967679,27.0005 282.625966,26.665 282.625966,26.2505 C282.625966,25.8365 282.967679,25.5005 283.388717,25.5005 C283.810264,25.5005 284.151977,25.8365 284.151977,26.2505 C284.151977,26.665 283.810773,27.0005 283.388717,27.0005 Z M274.490462,38.5005 C277.579672,38.5005 280.083971,36.0380661 280.083971,33.0005 C280.083971,29.9629339 277.579672,27.5005 274.490462,27.5005 C271.401253,27.5005 268.896954,29.9629339 268.896954,33.0005 C268.896954,36.0380661 271.401253,38.5005 274.490462,38.5005 Z M264.828947,22.0005 C264.828947,21.4485 264.373331,21.0005 263.811946,21.0005 L261.777943,21.0005 C261.216049,21.0005 260.760941,21.4485 260.760941,22.0005 L260.760941,22.5005 L264.828947,22.5005 L264.828947,22.0005 Z" id="Camera" fill="#F2F4F6" sketch:type="MSShapeGroup"></path>
                <rect id="Rectangle-1" stroke="#979797" fill="#93979B" sketch:type="MSShapeGroup" x="177" y="0" width="61" height="61" rx="15"></rect>
                <g id="bluetooth" transform="translate(200.000000, 17.000000)" stroke="#F2F4F6" fill="#F2F4F6" sketch:type="MSShapeGroup">
                    <path d="M8.6290367,13.0041219 L14.4173059,7.43244012 L6.87057516,0.59384921 L6.87057516,11.6072128 L1.37999824,6.5537583 L0.589036701,7.42534921 L6.58557516,12.945031 L0.593075162,18.3577583 L1.37595978,19.2358492 L6.87057516,14.2739856 L6.87057516,25.4138038 L14.4173059,18.5758038 L8.6290367,13.0041219 L8.6290367,13.0041219 Z M12.6773059,7.4442583 L8.04288285,11.6296674 L8.04288285,3.24466739 L12.6773059,7.4442583 L12.6773059,7.4442583 Z M8.04288285,14.2858038 L12.6836521,18.5574856 L8.04288285,22.7629856 L8.04288285,14.2858038 L8.04288285,14.2858038 Z" id="Bluetooth"></path>
                </g>
                <path d="M149.14734,16.5005 L131.858314,16.5005 C130.734527,16.5005 129.824311,17.396 129.824311,18.5005 L129.824311,43.5005 C129.824311,44.605 130.734527,45.5005 131.858314,45.5005 L149.14734,45.5005 C150.270618,45.5005 151.181343,44.605 151.181343,43.5005 L151.181343,18.5005 C151.181343,17.396 150.270618,16.5005 149.14734,16.5005 L149.14734,16.5005 Z M136.943321,43.0005 L132.366815,43.0005 L132.366815,38.5005 L136.943321,38.5005 L136.943321,43.0005 L136.943321,43.0005 Z M136.943321,37.0005 L132.366815,37.0005 L132.366815,32.5005 L136.943321,32.5005 L136.943321,37.0005 L136.943321,37.0005 Z M136.943321,31.001 L132.366815,31.001 L132.366815,26.5 L136.943321,26.5 L136.943321,31.001 L136.943321,31.001 Z M143.045331,43.0005 L138.468824,43.0005 L138.468824,38.5005 L143.045331,38.5005 L143.045331,43.0005 L143.045331,43.0005 Z M143.045331,37.0005 L138.468824,37.0005 L138.468824,32.5005 L143.045331,32.5005 L143.045331,37.0005 L143.045331,37.0005 Z M143.045331,31.001 L138.468824,31.001 L138.468824,26.5 L143.045331,26.5 L143.045331,31.001 L143.045331,31.001 Z M148.638839,43.0005 L144.570833,43.0005 L144.570833,32.5005 L148.638839,32.5005 L148.638839,43.0005 L148.638839,43.0005 Z M148.638839,31.001 L144.570833,31.001 L144.570833,26.5 L148.638839,26.5 L148.638839,31.001 L148.638839,31.001 Z M148.638839,23.5005 L132.366815,23.5005 L132.366815,20.0005 L148.638839,20.0005 L148.638839,23.5005 L148.638839,23.5005 Z" id="Calculator" fill="#F2F4F6" sketch:type="MSShapeGroup"></path>
                <path d="M76.0066909,16.5005 C67.8625425,16.5005 61.2601685,22.9925 61.2601685,31.001 C61.2601685,39.009 67.8625425,45.501 76.0066909,45.501 C84.1508393,45.501 90.7537218,39.009 90.7537218,31.001 C90.7532133,22.9925 84.1508393,16.5005 76.0066909,16.5005 L76.0066909,16.5005 Z M75.8892272,42.947 C69.1582025,42.947 63.6816491,37.559 63.6816491,30.9365 C63.6816491,27.7915 64.9117125,24.817 67.1455564,22.561 L68.0125502,23.3915 C66.0004127,25.424 64.8923895,28.1035 64.8923895,30.9365 C64.8923895,36.9025 69.8253555,41.756 75.8892272,41.756 C81.9536074,41.756 86.8870819,36.9025 86.8870819,30.9365 C86.8870819,25.163 82.3344745,20.4475 76.4948516,20.136 L76.4948516,24.487 L75.5063261,24.487 L75.5063261,18.939 L76.3672179,18.939 C82.9558624,19.202 88.0973138,24.472 88.0973138,30.9365 C88.0978223,37.559 82.6212689,42.947 75.8892272,42.947 L75.8892272,42.947 Z M69.9834992,25.042 L77.5052427,29.6305 C77.5052427,29.6305 78.9580294,31.111 77.371507,32.4685 C75.784476,33.8255 74.5264451,32.0065 74.5264451,32.0065 L69.9834992,25.042 L69.9834992,25.042 Z" id="Alarm" fill="#F2F4F6" sketch:type="MSShapeGroup"></path>
                <path d="M0.900044822,13.0005 L15.1380665,13.0005 L15.1380665,16.001 L0.900044822,16.001 L0.900044822,13.0005 Z M4.968051,47.0005 L11.0695518,47.0005 L11.0695518,49.0005 L4.968051,49.0005 L4.968051,47.0005 Z M4.968051,23.5005 L4.968051,46 L11.0695518,46 L11.0695518,23.5005 L15.137558,17.0005 L0.899536321,17.0005 L4.968051,23.5005 Z M5.98505255,30.001 C5.98505255,28.896 6.89577743,28.001 8.01905564,28.001 C9.14233385,28.001 10.0530587,28.896 10.0530587,30.001 L10.0530587,33.0005 C10.0530587,34.105 9.14284235,35 8.01905564,35 C6.89577743,35 5.98505255,34.105 5.98505255,33.0005 L5.98505255,30.001 Z" id="Flashlight" fill="#F2F4F6" sketch:type="MSShapeGroup"></path>
            </g>
            <g id="Brightness" sketch:type="MSLayerGroup" transform="translate(0.000000, 474.000000)">
                <rect id="Back" fill="#6E7378" sketch:type="MSShapeGroup" x="0" y="0" width="375" height="47"></rect>
                <g id="Slider" transform="translate(57.845745, 16.000000)" sketch:type="MSShapeGroup">
                    <rect id="base" fill="#000000" x="0" y="6.5" width="259.308511" height="3" rx="3"></rect>
                    <rect id="highlight" fill="#FFFFFF" x="0" y="6.5" width="138.131649" height="3" rx="3"></rect>
                    <ellipse id="Oval-5" stroke-opacity="0.101987092" stroke="#000000" fill="#FFFFFF" filter="url(#filter-1)" cx="132.646277" cy="7.5" rx="7.48005319" ry="7.5"></ellipse>
                </g>
                <path d="M340.090425,18.4839939 C342.844581,18.4839939 345.077127,20.7224939 345.077127,23.4839939 C345.077127,26.2449939 342.844082,28.4834939 340.090425,28.4834939 C337.33627,28.4834939 335.103723,26.2449939 335.103723,23.4839939 C335.103224,20.7224939 337.33627,18.4839939 340.090425,18.4839939 Z M339.591256,12.4839939 L340.588597,12.4839939 L340.588597,16.4834939 L339.591256,16.4834939 L339.591256,12.4839939 Z M339.591256,30.4834939 L340.588597,30.4834939 L340.588597,34.4834939 L339.591256,34.4834939 L339.591256,30.4834939 Z M351.06117,22.9839939 L351.06117,23.9839939 L347.071808,23.9839939 L347.071808,22.9839939 L351.06117,22.9839939 Z M333.109042,22.9839939 L333.109042,23.9839939 L329.11968,23.9839939 L329.11968,22.9839939 L333.109042,22.9839939 Z M347.495179,15.3519939 L348.200299,16.0594939 L345.379321,18.8879939 L344.674202,18.1804939 L347.495179,15.3519939 Z M334.80103,28.0799939 L335.50615,28.7869939 L332.685172,31.6154939 L331.980053,30.9079939 L334.80103,28.0799939 Z M348.200299,30.9084939 L347.495179,31.6159939 L344.674202,28.7874939 L345.379321,28.0804939 L348.200299,30.9084939 Z M335.50615,18.1804939 L334.80103,18.8879939 L331.980053,16.0594939 L332.685172,15.3519939 L335.50615,18.1804939 Z" id="Max." fill="#000000" sketch:type="MSShapeGroup"></path>
                <path d="M36.8776592,19.9839939 C38.8055182,19.9839939 40.3683507,21.5504939 40.3683507,23.4839939 C40.3683507,25.4164939 38.8055182,26.9839939 36.8776592,26.9839939 C34.9498002,26.9839939 33.3869677,25.4164939 33.3869677,23.4839939 C33.386469,21.5504939 34.9498002,19.9839939 36.8776592,19.9839939 Z M36.378989,15.9834939 L37.3763294,15.9834939 L37.3763294,18.4834939 L36.378989,18.4834939 L36.378989,15.9834939 Z M36.378989,28.4834939 L37.3763294,28.4834939 L37.3763294,30.9834939 L36.378989,30.9834939 L36.378989,28.4834939 Z M44.3572137,22.9839939 L44.3572137,23.9839939 L41.8643613,23.9839939 L41.8643613,22.9839939 L44.3572137,22.9839939 Z M31.8904584,22.9839939 L31.8904584,23.9839939 L29.3971073,23.9839939 L29.3971073,22.9839939 L31.8904584,22.9839939 Z M41.8139956,17.8269939 L42.5191153,18.5344939 L40.7563161,20.3019939 L40.0506978,19.5949939 L41.8139956,17.8269939 Z M32.9990023,26.6654939 L33.704122,27.3729939 L31.9413228,29.1404939 L31.2362031,28.4329939 L32.9990023,26.6654939 Z M42.5191153,28.4334939 L41.8139956,29.1409939 L40.0506978,27.3734939 L40.7563161,26.6659939 L42.5191153,28.4334939 Z M33.704122,19.5944939 L32.9990023,20.3014939 L31.2357044,18.5339939 L31.9408241,17.8264939 L33.704122,19.5944939 Z" id="Min." fill="#000000" sketch:type="MSShapeGroup"></path>
            </g>
            <g id="top-bar" sketch:type="MSLayerGroup" transform="translate(26.000000, 245.000000)">
                <circle id="Oval-1-Copy-4" fill="#4A4E52" sketch:type="MSShapeGroup" cx="300.5" cy="24.5" r="24.5"></circle>
                <g id="lock" transform="translate(290.349998, 14.299988)" fill="#F2F4F6" sketch:type="MSShapeGroup">
                    <path d="M7.58756272,7.08101221 L7.58756274,9.70001221 L6.65000154,9.70001221 L6.65000153,14.7000122 L14.1500015,14.7000122 L14.1500015,9.70051221 L13.2129299,9.70051221 L13.2129299,7.08101221 C13.2129299,7.08101221 12.7997176,4.70001221 10.4002463,4.70001221 C8.00028549,4.70001221 7.58756272,7.08101221 7.58756272,7.08101221 Z M8.99365983,9.70217902 L8.99365973,7.08101221 C8.99365973,7.08101221 9.54689427,6.12851221 10.3997567,6.12851221 C11.2526192,6.12851221 11.8058537,7.08101221 11.8058537,7.08101221 L11.8058538,9.70217902 L8.99365983,9.70217902 Z" id="Shape"></path>
                    <path d="M19.5845,14.488 L22.695,9.251 L20.3015,9.251 C20.3005,9.2455 20.3005,9.2395 20.299,9.234 C20.06,6.779 18.913,4.5055 17.0685,2.8285 C15.206,1.136 12.792,0.2035 10.271,0.2035 C4.715,0.2035 0.1945,4.6895 0.1945,10.204 C0.1945,15.718 4.715,20.204 10.271,20.204 C13.095,20.204 15.8095,19.012 17.718,16.9335 C17.739,16.91 17.75,16.88 17.7485,16.8485 C17.747,16.817 17.733,16.788 17.7095,16.767 L16.656,15.8315 C16.6085,15.7885 16.534,15.792 16.4905,15.8395 C14.895,17.572 12.628,18.566 10.271,18.566 C5.625,18.566 1.8445,14.8145 1.8445,10.2035 C1.8445,5.5925 5.625,1.8405 10.271,1.8405 C14.564,1.8405 18.1555,5.0245 18.6405,9.2505 L16.474,9.2505 L19.5845,14.488 L19.5845,14.488 Z" id="Shape"></path>
                </g>
                <circle id="Oval-1-Copy-3" fill="#4A4E52" sketch:type="MSShapeGroup" cx="231.5" cy="24.5" r="24.5"></circle>
                <g id="moon" transform="translate(222.500000, 16.000000)" fill="#F2F4F6" sketch:type="MSShapeGroup">
                    <path d="M12.9114985,13.1014878 C8.36699847,13.1014878 4.68299847,9.44998779 4.68299847,4.94548779 C4.68299847,3.08698779 5.31099847,1.37448779 6.36749847,0.00298779297 C2.70299847,1.14548779 0.0454984741,4.53848779 0.0454984741,8.54748779 C0.0454984741,13.4934878 4.09099847,17.5029878 9.08099847,17.5029878 C12.9574985,17.5029878 16.2634985,15.0834878 17.5459985,11.6849878 C16.2259985,12.5784878 14.6304985,13.1014878 12.9114985,13.1014878 L12.9114985,13.1014878 Z" id="DND"></path>
                </g>
                <circle id="Oval-1" stroke="#979797" fill="#979B9E" sketch:type="MSShapeGroup" cx="162.5" cy="24.5" r="24.5"></circle>
                <g id="battery" transform="translate(150.000000, 18.000000)" sketch:type="MSShapeGroup">
                    <rect id="Rectangle-9" stroke="#F2F4F6" stroke-width="2" fill="#FFCD00" x="0" y="0" width="25" height="11" rx="3"></rect>
                    <rect id="Rectangle-9" fill="#F2F4F6" x="24" y="3" width="3" height="5" rx="3"></rect>
                </g>
                <circle id="Oval-1-Copy" stroke="#979797" fill="#979B9E" sketch:type="MSShapeGroup" cx="93.5" cy="24.5" r="24.5"></circle>
                <g id="wifi" transform="translate(82.349998, 16.299988)" fill="#F2F4F6" sketch:type="MSShapeGroup">
                    <path d="M11.2115,5.953 C6.19,5.953 3.9385,8.979 3.9385,8.979 L5.9335,10.9795 C5.9335,10.9795 8.044,8.7195 11.2025,8.7195 C14.361,8.7195 16.4675,10.9715 16.4675,10.9715 L18.47,9.0415 C18.47,9.041 16.233,5.953 11.2115,5.953 L11.2115,5.953 Z" id="Shape"></path>
                    <path d="M11.248,0.3155 C3.6305,0.3155 0.0015,4.9845 0.0015,4.9845 L1.919,6.991 C1.919,6.991 5.656,3.058 11.189,3.058 C16.722,3.058 20.462,6.9905 20.462,6.9905 L22.468,4.9765 C22.468,4.9765 18.866,0.3155 11.248,0.3155 L11.248,0.3155 Z" id="Shape"></path>
                    <path d="M11.196,11.685 C8.564,11.685 7.921,13.4655 7.921,13.4655 L11.209,16.5595 L14.4875,13.4655 C14.487,13.4655 13.8275,11.685 11.196,11.685 L11.196,11.685 Z" id="Shape"></path>
                </g>
                <circle id="Oval-1-Copy-2" fill="#4A4E52" sketch:type="MSShapeGroup" cx="24.5" cy="24.5" r="24.5"></circle>
                <g id="flight" transform="translate(16.000000, 16.000000)" fill="#F2F4F6" sketch:type="MSShapeGroup">
                    <path d="M0.0459984741,13.0034878 L0.0459984741,4.00348779 L2.54599847,7.00398779 L7.04599847,7.00398779 L7.04599847,6.50348779 L4.54599847,0.00348779297 L6.04649847,0.00348779297 L11.5464985,7.00398779 L17.0459985,7.00398779 C17.0459985,7.00398779 18.5464985,7.21798779 18.5464985,8.50398779 C18.5464985,9.78948779 17.0459985,10.0039878 17.0459985,10.0039878 L11.5464985,10.0039878 L6.04649847,17.0039878 L4.54599847,17.0039878 L7.04599847,10.5034878 L7.04599847,10.0034878 L2.54599847,10.0034878 L0.0459984741,13.0034878 L0.0459984741,13.0034878 Z" id="Airplane-mode"></path>
                </g>
            </g>
            <path d="M201.558306,214.904349 L188.000013,211.453928 L174.441206,214.904349 C172.496814,215.357511 170.550879,214.15441 170.095765,212.215859 C169.641165,210.277808 170.848632,208.338257 172.794053,207.885096 L187.954245,204.023482 L188.045782,204 L203.205974,207.885096 C205.150881,208.338257 206.358862,210.277808 205.904262,212.215859 C205.449148,214.15441 203.503727,215.35801 201.558306,214.904349 Z" id="Close" fill="#F2F4F6" sketch:type="MSShapeGroup" transform="translate(188.000000, 209.500000) scale(1, -1) translate(-188.000000, -209.500000) "></path>
        </g>
    </g>
</svg>